<svg xmlns="http://www.w3.org/2000/svg" xmlns:xlink="http://www.w3.org/1999/xlink" width="200" zoomAndPan="magnify" viewBox="0 0 150 149.999998" height="200" preserveAspectRatio="xMidYMid meet" version="1.0"><defs><filter x="0%" y="0%" width="100%" height="100%" id="0c41975ae8"><feColorMatrix values="0 0 0 0 1 0 0 0 0 1 0 0 0 0 1 0 0 0 1 0" color-interpolation-filters="sRGB"/></filter><mask id="bc9686acda"><g filter="url(#0c41975ae8)"><rect x="-15" width="180" fill="#000000" y="-15" height="179.999997" fill-opacity="0.21"/></g></mask><clipPath id="a2aa3cb5cd"><path d="M 0 0 L 150 0 L 150 150 L 0 150 Z M 0 0 " clip-rule="nonzero"/></clipPath><clipPath id="e2811db245"><path d="M 75 0 C 33.578125 0 0 33.578125 0 75 C 0 116.421875 33.578125 150 75 150 C 116.421875 150 150 116.421875 150 75 C 150 33.578125 116.421875 0 75 0 Z M 75 0 " clip-rule="nonzero"/></clipPath><clipPath id="1ef2b0c5ce"><rect x="0" width="150" y="0" height="150"/></clipPath><clipPath id="c234a0c5be"><path d="M 20.695312 42.621094 L 129.445312 42.621094 L 129.445312 107.121094 L 20.695312 107.121094 Z M 20.695312 42.621094 " clip-rule="nonzero"/></clipPath></defs><g mask="url(#bc9686acda)"><g transform="matrix(1, 0, 0, 1, 0, -0.000000000000007527)"><g clip-path="url(#1ef2b0c5ce)"><g clip-path="url(#a2aa3cb5cd)"><g clip-path="url(#e2811db245)"><rect x="-33" width="216" fill="#38b6ff" height="215.999996" y="-32.999999" fill-opacity="1"/></g></g></g></g></g><g clip-path="url(#c234a0c5be)"><path fill="#38b6ff" d="M 129.191406 107.382812 L 119.929688 107.382812 L 112.839844 100.613281 C 107.304688 104.78125 100.941406 106.867188 93.75 106.867188 C 84.875 106.867188 77.191406 103.773438 70.710938 97.585938 C 68.449219 95.429688 66.585938 93.121094 65.113281 90.65625 L 68.398438 82.433594 C 69.613281 86.378906 71.820312 89.941406 75.023438 93.121094 C 80.191406 98.25 86.378906 100.839844 93.589844 100.894531 C 99.152344 100.933594 104.125 99.464844 108.507812 96.480469 L 98.871094 87.285156 L 103.289062 82.660156 L 113.371094 92.285156 C 118.042969 87.292969 120.355469 81.363281 120.304688 74.503906 C 120.195312 67.273438 117.519531 61.144531 112.273438 56.125 C 107.027344 51.105469 100.773438 48.597656 93.507812 48.597656 C 86.351562 48.597656 80.191406 51.160156 75.023438 56.289062 C 72.460938 58.832031 70.535156 61.632812 69.242188 64.683594 C 69.238281 64.683594 69.238281 64.683594 69.234375 64.683594 L 61.851562 82.699219 L 52.441406 105.65625 L 46.304688 105.65625 L 20.804688 43.429688 L 50.863281 43.429688 L 50.863281 49.234375 L 29.6875 49.234375 L 49.332031 97.921875 L 62.164062 66.238281 L 64.765625 59.8125 C 66.234375 57.113281 68.136719 54.582031 70.464844 52.222656 C 72.296875 50.367188 74.238281 48.78125 76.289062 47.464844 C 81.316406 44.234375 87.003906 42.621094 93.347656 42.621094 C 102.277344 42.621094 110 45.675781 116.507812 51.78125 C 123.019531 57.886719 126.273438 65.328125 126.273438 74.097656 C 126.273438 82.660156 123.378906 90.066406 117.585938 96.308594 Z M 129.191406 107.382812 " fill-opacity="1" fill-rule="nonzero"/></g></svg>